<?xml version="1.0" encoding="utf-8"?>
<svg version="1.1" viewBox="0 0 48 48" style="enable-background:new 0 0 48 48;" xml:space="preserve">
<style type="text/css">
	.st0{fill:#010101;}
	.st1{fill:#2C324B;}
</style>
	<path class="st0" d="M24,13.6c-10,0-18.8,5.2-23.8,12.9c1.3,12,11.4,21.4,23.8,21.4s22.5-9.4,23.8-21.4C42.8,18.7,34,13.6,24,13.6z
		"/>
	<path class="st1" d="M24,13.6c10,0,18.8,5.2,23.8,12.9c0.1-0.8,0.1-1.7,0.1-2.5C47.9,10.8,37.2,0.1,24,0.1S0.1,10.8,0.1,24
		c0,0.9,0,1.7,0.1,2.5C5.2,18.7,14,13.6,24,13.6z"/>
</svg>
