<?xml version="1.0" encoding="utf-8"?>
<svg version="1.1" viewBox="0 0 48 48" style="enable-background:new 0 0 48 48;" xml:space="preserve">
<style type="text/css">
	.st0{fill:#010101;}
	.st1{fill:#767B91;}
</style>
	<path class="st0" d="M10.7,37.3c0,2.5,0.3,4.9,0.9,7.2C15.2,46.7,19.5,48,24,48c13.3,0,24-10.7,24-24c0-5.6-1.9-10.8-5.2-14.9
		c-1.2-0.2-2.5-0.3-3.7-0.3C23.4,8.9,10.7,21.6,10.7,37.3z"/>
	<path class="st1" d="M10.7,37.3c0-15.7,12.7-28.4,28.4-28.4c1.3,0,2.5,0.1,3.7,0.3C38.4,3.6,31.6,0,24,0C10.7,0,0,10.7,0,24
		c0,8.7,4.6,16.3,11.6,20.5C11,42.2,10.7,39.8,10.7,37.3z"/>
</svg>
