<?xml version="1.0" encoding="utf-8"?>
<svg version="1.1" viewBox="0 0 48 48" style="enable-background:new 0 0 48 48;" xml:space="preserve">
<style type="text/css">
	.st0{fill:#010101;}
	.st1{fill:#E1E5EE;}
</style>
	<path class="st0" d="M24,0c-4.1,0-8,1-11.3,2.9c-0.1,1.1-0.2,2.2-0.2,3.4c0,15.7,12.7,28.4,28.4,28.4c1.6,0,3.2-0.1,4.8-0.4
		C47.2,31.1,48,27.7,48,24C48,10.7,37.3,0,24,0z"/>
	<path class="st1" d="M40.9,34.7c-15.7,0-28.4-12.7-28.4-28.4c0-1.1,0.1-2.3,0.2-3.4C5.1,6.9,0,14.9,0,24c0,13.3,10.7,24,24,24
		c9.6,0,17.9-5.6,21.7-13.7C44.1,34.5,42.5,34.7,40.9,34.7z"/>
</svg>
