<svg viewBox="0 0 52 52" fill="none" stroke="currentColor">
<path d="M24.0474 32.2302V29.027C24.0474 28.1157 24.7861 27.3769 25.6975 27.3769V27.3769C26.6088 27.3769 27.3476 28.1157 27.3476 29.027V32.2302" />
<path d="M19 26.018L25.7945 20L32.3949 26.018" />
<path d="M20.3589 24.6591V30.2302C20.3589 31.3347 21.2543 32.2302 22.3589 32.2302H29.036C30.1406 32.2302 31.036 31.3347 31.036 30.2302V24.6591V22.1354C31.036 21.3849 30.4276 20.7765 29.6771 20.7765V20.7765C28.9266 20.7765 28.3182 21.3849 28.3182 22.1354V22.3295" />
<rect x="0.707107" y="25.701" width="35.3467" height="35.3467" transform="rotate(-45 0.707107 25.701)" />
</svg>
